<?xml version="1.0" standalone="no"?>
<!DOCTYPE svg PUBLIC "-//W3C//DTD SVG 1.1//EN" "http://www.w3.org/Graphics/SVG/1.1/DTD/svg11.dtd" >
<svg xmlns="http://www.w3.org/2000/svg">
<metadata>Generated by IcoMoon</metadata>
<defs>
<font id="icomoon" horiz-adv-x="1024">
<font-face units-per-em="1024" ascent="960" descent="-64" />
<missing-glyph horiz-adv-x="1024" />
<glyph unicode="&#x20;" horiz-adv-x="512" d="" />
<glyph unicode="&#xe900;" glyph-name="bag" d="M820-64h-616c-50.728 0-92 41.272-92 92v840c0 50.728 41.272 92 92 92h616c50.728 0 92-41.272 92-92v-840c0-50.728-41.272-92-92-92zM204 896c-15.44 0-28-12.56-28-28v-840c0-15.44 12.56-28 28-28h616c15.44 0 28 12.56 28 28v840c0 15.44-12.56 28-28 28zM736 768h-96c-17.672 0-32-14.328-32-32s14.328-32 32-32h16c0-79.402-64.598-144-144-144s-144 64.598-144 144h16c17.672 0 32 14.328 32 32s-14.328 32-32 32h-96c-17.672 0-32-14.328-32-32s14.328-32 32-32h16c0-114.692 93.308-208 208-208s208 93.308 208 208h16c17.672 0 32 14.328 32 32s-14.328 32-32 32z" />
<glyph unicode="&#xe901;" glyph-name="heart" d="M940.259 834.32c-52.965 56.93-127.184 89.323-204.942 89.443-77.821-0.090-152.116-32.465-205.163-89.407l-18.079-19.104-18.079 19.104c-105.26 113.288-282.43 119.794-395.716 14.534-5.020-4.666-9.868-9.512-14.534-14.534-111.661-120.44-111.661-306.573 0-427.013l401.761-423.683c13.9-14.674 37.063-15.302 51.737-1.402 0.48 0.455 0.948 0.922 1.402 1.402l401.615 423.683c111.652 120.427 111.652 306.55-0.002 426.977zM887.304 457.737h-0.036l-375.193-395.723-375.227 395.723c-85.302 92.027-85.302 234.234 0 326.261 77.465 83.96 208.328 89.224 292.288 11.76 4.076-3.761 7.998-7.683 11.76-11.76l44.611-47.064c14.702-14.607 38.437-14.607 53.139 0l44.611 47.028c77.465 83.96 208.328 89.224 292.288 11.76 4.076-3.761 7.998-7.683 11.76-11.76 86.044-92.173 86.675-234.639 0-326.224z" />
<glyph unicode="&#xe902;" glyph-name="profile" d="M512 960c-142.034 0-257.578-115.544-257.578-257.578s115.544-257.578 257.578-257.578 257.578 115.544 257.578 257.578-115.544 257.578-257.578 257.578zM512 520.602c-100.254 0-181.82 81.566-181.82 181.82s81.566 181.82 181.82 181.82 181.82-81.566 181.82-181.82c0-100.254-81.566-181.82-181.82-181.82zM512 353.934c-226.568 0-404.044-183.574-404.044-417.934h75.758c0 195.078 141.138 342.176 328.286 342.176s328.286-147.11 328.286-342.176h75.758c0 234.358-177.476 417.934-404.044 417.934z" />
<glyph unicode="&#xe903;" glyph-name="search" d="M422.069 116.646c-232.514 0-421.677 189.163-421.677 421.677s189.163 421.677 421.677 421.677 421.677-189.163 421.677-421.677-189.163-421.677-421.677-421.677zM422.069 880.061c-188.436 0-341.738-153.303-341.738-341.738s153.303-341.738 341.738-341.738 341.738 153.303 341.738 341.738-153.303 341.738-341.738 341.738zM1011.903-52.293c15.608 15.61 15.608 40.919 0 56.527l-178.863 178.863c-15.61 15.61-40.919 15.61-56.527 0s-15.608-40.919 0-56.527l178.863-178.863c7.804-7.804 18.034-11.705 28.264-11.705s20.456 3.901 28.262 11.705z" />
<glyph unicode="&#xe904;" glyph-name="email" d="M987.428 813.714h-950.856c-20.199 0-36.572-16.374-36.572-36.57v-658.285c0-20.199 16.374-36.572 36.572-36.572h950.856c20.199 0 36.572 16.374 36.572 36.572v658.285c0 20.196-16.374 36.57-36.572 36.57zM927.451 740.572l-415.453-319.562-415.45 319.562h830.903zM950.856 155.428h-877.714v510.868l416.586-320.438c13.136-10.086 31.408-10.086 44.544 0l416.584 320.438v-510.868z" />
<glyph unicode="&#xe905;" glyph-name="pin" d="M883.094 691.672c-36.506 117.944-131.336 213.554-247.482 249.524-123.682 38.302-252.624 17.51-353.76-57.044-48.46-35.722-88.672-82.84-116.286-136.254-28.54-55.206-43.624-117.358-43.624-179.74 0-85.096 26.918-165.964 77.846-233.862l312.252-398.296 312.254 398.296c76.212 101.618 97.646 231.878 58.8 357.376zM776.466 370.552l-264.426-337.314-264.428 337.314c-42.95 57.378-65.654 125.704-65.654 197.606 0 105.066 50.656 205.136 135.506 267.684 85.628 63.122 195.118 80.624 300.396 48.024 97.504-30.196 177.168-110.64 207.906-209.938 33.056-106.804 15.086-217.364-49.3-303.376zM512.040 778.21c-115.822 0-210.052-94.23-210.052-210.052s94.23-210.052 210.052-210.052 210.052 94.23 210.052 210.052c0 115.822-94.23 210.052-210.052 210.052zM512.040 418.12c-82.73 0-150.038 67.306-150.038 150.038 0 82.73 67.306 150.038 150.038 150.038s150.038-67.306 150.038-150.038c0-82.73-67.308-150.038-150.038-150.038z" />
<glyph unicode="&#xe906;" glyph-name="headphones" d="M511.999 960c-282.643-0.302-511.697-229.356-511.999-511.999v-402.285c0-60.594 49.121-109.714 109.714-109.714h146.286c20.199 0 36.572 16.374 36.572 36.572v365.713c0 20.199-16.374 36.572-36.572 36.572h-146.286c-12.486-0.122-24.859-2.398-36.572-6.729v79.873c0 242.374 196.483 438.857 438.857 438.857s438.857-196.483 438.857-438.857v-79.873c-11.713 4.331-24.084 6.609-36.572 6.729h-146.284c-20.199 0-36.572-16.374-36.572-36.572v-365.715c0-20.199 16.374-36.572 36.572-36.572h146.286c60.594 0 109.714 49.121 109.714 109.714v402.287c-0.302 282.643-229.356 511.697-512.001 511.999zM109.714 301.715h109.714v-292.571h-109.714c-20.199 0-36.572 16.374-36.572 36.572v219.428c0 20.196 16.374 36.57 36.572 36.57zM950.856 45.714c0-20.199-16.374-36.572-36.572-36.572h-109.714v292.573h109.714c20.199 0 36.572-16.374 36.572-36.572v-219.428z" />
<glyph unicode="&#xe907;" glyph-name="left-quote" d="M327.742 488.033c-25.221 7.261-50.442 10.945-74.975 10.945-37.885 0-69.497-8.658-94.009-19.259 23.631 86.511 80.399 235.785 193.485 252.595 10.473 1.558 19.055 9.13 21.912 19.324l24.716 88.402c2.084 7.476 0.849 15.478-3.416 21.966s-11.117 10.817-18.797 11.869c-8.346 1.139-16.853 1.719-25.285 1.719-135.739 0-270.168-141.679-326.893-344.541-33.298-119.015-43.062-297.945 38.959-410.569 45.898-63.020 112.86-96.673 199.028-100.035 0.354-0.011 0.698-0.021 1.053-0.021 106.318 0 200.596 71.602 229.275 174.107 17.133 61.28 9.388 125.546-21.827 181.003-30.882 54.835-81.742 94.804-143.226 112.495zM993.269 375.528c-30.882 54.846-81.742 94.814-143.226 112.506-25.221 7.261-50.442 10.945-74.964 10.945-37.885 0-69.508-8.658-94.020-19.259 23.631 86.511 80.399 235.785 193.496 252.595 10.473 1.558 19.045 9.13 21.912 19.324l24.716 88.402c2.084 7.476 0.849 15.478-3.416 21.966-4.254 6.488-11.107 10.817-18.797 11.869-8.335 1.139-16.843 1.719-25.285 1.719-135.739 0-270.168-141.679-326.904-344.541-33.288-119.015-43.052-297.945 38.981-410.59 45.887-63.009 112.86-96.673 199.017-100.024 0.354-0.011 0.698-0.021 1.063-0.021 106.308 0 200.596 71.602 229.275 174.107 17.111 61.28 9.356 125.556-21.848 181.003z" />
<glyph unicode="&#xe908;" glyph-name="message-mail" d="M85.557 68.031l141.447 142.571 42.592-42.256-141.447-142.571-42.592 42.256zM-0.002-21.543l51.914 52.326 42.592-42.256-51.914-52.326-42.592 42.256zM63.91 653.952l254.033-254.033-43.478-189.675 189.655 43.498 254.033-254.033 305.848 960.092-960.090-305.85zM176.027 626.692l657.678 209.513-480.623-386.568-177.055 177.055zM456.737 313.602l-102.417-23.48 23.5 102.417 403.268 324.35-324.35-403.288zM690.89 111.809l-177.055 177.055 386.59 480.663-209.535-657.718z" />
<glyph unicode="&#xe909;" glyph-name="delivery" d="M424 789.797h-424v80h424zM344 709.797h-344v-80h344zM264 549.797h-264v-80h264zM1024 103.797h-166.883c-16.508-46.555-60.969-80-113.117-80s-96.609 33.445-113.117 80h-247.766c-16.508-46.555-60.969-80-113.117-80s-96.609 33.445-113.117 80h-36.883c-66.172 0-120 53.836-120 120v166h80v-166c0-22.055 17.945-40 40-40h36.883c16.508 46.563 60.969 80 113.117 80s96.609-33.438 113.117-80h240.883v566.203c0 22.055-17.945 40-40 40h-80v80h80c66.172 0 120-53.828 120-120v-80.203h80.148c37.43 0 73.242-17.836 95.789-47.711l111.773-148.102c20.82-27.586 32.289-61.82 32.289-96.383zM704 589.797v-150h213.281l-101.203 134.102c-7.516 9.961-19.453 15.898-31.93 15.898zM310 143.797c0 22.063-17.945 40-40 40s-40-17.938-40-40c0-22.055 17.945-40 40-40s40 17.945 40 40zM784 143.797c0 22.063-17.945 40-40 40s-40-17.938-40-40c0-22.055 17.945-40 40-40s40 17.945 40 40zM944 183.797v176h-240v-102.875c12.523 4.438 25.977 6.875 40 6.875 52.148 0 96.609-33.438 113.117-80z" />
<glyph unicode="&#xe90a;" glyph-name="shuffle" d="M406.382 282.313l31.341 50.563c7.522 12.118 3.761 27.789-8.357 35.31-11.909 7.522-27.789 3.761-35.31-8.357l-31.341-50.563c-56.831-91.723-137.898-144.375-222.727-144.375h-114.497c-14.208 0-25.49-11.492-25.49-25.699s11.492-25.699 25.49-25.699h114.706c103.006 0.418 199.953 61.845 266.186 168.821zM1016.269 774.568l-124.109 124.317c-10.029 10.029-26.117 10.029-36.146 0s-10.029-26.117 0-36.146l80.65-80.65c-0.209 0-0.209 0-0.418 0h-118.467c-102.797 0-199.953-61.427-266.186-168.403l-19.222-31.132c-7.522-12.118-3.761-27.789 8.357-35.31 4.179-2.507 8.775-3.761 13.372-3.761 8.566 0 16.924 4.388 21.729 12.118l19.222 31.132c56.831 91.723 137.898 144.166 222.727 144.166h118.258c0.209 0 0.209 0 0.418 0l-80.65-80.65c-10.029-10.029-10.029-26.117 0-36.146 5.014-5.014 11.492-7.522 18.178-7.522s13.163 2.507 18.178 7.522l124.317 124.317c9.82 10.029 9.82 26.326-0.209 36.146zM961.737 756.182c0 0.209 0 0.209 0 0.418s0 0.209 0 0.418l0.418-0.418-0.418-0.418zM855.806-2.886c5.014-5.014 11.492-7.522 18.178-7.522s13.163 2.507 18.178 7.522l124.317 124.317c10.029 10.029 10.029 26.117 0 36.146l-124.317 124.109c-10.029 10.029-26.117 10.029-36.146 0s-10.029-26.117 0-36.146l80.65-80.65c-0.209 0-0.209 0-0.418 0h-114.706c-84.619 0-165.896 52.652-222.727 144.375l-188.461 304.421c-66.233 107.185-163.389 168.403-266.186 168.403h-118.676c-14.208 0-25.49-11.492-25.49-25.699s11.492-25.699 25.49-25.699h118.467c84.619 0 165.896-52.652 222.727-144.166l188.461-304.421c66.233-107.185 163.389-168.612 266.186-168.612h114.706c0.209 0 0.209 0 0.418 0l-80.65-80.65c-9.82-9.611-9.82-25.699 0-35.728zM961.737 139.818l0.418-0.418-0.418-0.418c0 0.209 0 0.209 0 0.418s0 0.209 0 0.418z" />
<glyph unicode="&#xe90b;" glyph-name="arrow-point-to-right" d="M782.857 397.307l-440.304-440.29c-28.009-28.022-73.42-28.022-101.415 0-27.997 27.997-27.997 73.406 0 101.401l389.601 389.589-389.589 389.576c-27.997 28.009-27.997 73.413 0 101.41 27.997 28.009 73.406 28.009 101.415 0l440.304-440.297c13.999-14.005 20.99-32.342 20.99-50.687 0-18.354-7.005-36.704-21.001-50.703z" />
<glyph unicode="&#xe90c;" glyph-name="microphone" d="M595.226 960h-166.453c-67.424 0-141.169-37.926-141.169-141.169v-415.078c0-27.391 6.321-52.675 16.856-73.745 16.856-29.498 50.568-65.317 124.313-65.317h166.453c103.243 0 141.169 73.745 141.169 141.169v412.971c0 103.243-73.745 141.169-141.169 141.169zM694.255 403.753c0-37.926-12.642-99.029-99.029-99.029h-166.453c-42.14 0-71.638 14.749-86.387 44.247-8.428 14.749-12.642 35.819-12.642 54.782v8.428h364.51v-8.428zM329.745 454.321v297.086h364.51v-297.086h-364.51zM694.255 793.547h-364.51v25.284c0 86.387 61.103 99.029 99.029 99.029h166.453c37.926 0 99.029-12.642 99.029-99.029v-25.284zM820.675 584.955c-12.642 0-21.070-8.428-21.070-21.070v-202.272c0-48.461-14.749-160.132-160.132-160.132h-252.84c-67.424 0-115.885 25.284-141.169 71.638-12.642 25.284-21.070 56.889-21.070 88.494v202.272c0 12.642-8.428 21.070-21.070 21.070s-21.070-8.428-21.070-21.070v-202.272c0-40.033 8.428-77.959 25.284-107.457 23.177-44.247 73.745-94.815 179.095-94.815h105.35v-181.202h-71.638c-12.642 0-21.070-8.428-21.070-21.070s8.428-21.070 21.070-21.070h185.416c12.642 0 21.070 8.428 21.070 21.070s-8.428 21.070-21.070 21.070h-71.638v181.202h105.35c149.597 0 202.272 105.35 202.272 202.272v202.272c0 12.642-8.428 21.070-21.070 21.070zM487.77 686.091c0-12.8-10.377-23.177-23.177-23.177s-23.177 10.377-23.177 23.177c0 12.8 10.377 23.177 23.177 23.177s23.177-10.377 23.177-23.177zM591.012 686.091c0-12.8-10.377-23.177-23.177-23.177s-23.177 10.377-23.177 23.177c0 12.8 10.377 23.177 23.177 23.177s23.177-10.377 23.177-23.177zM437.202 601.811c0-12.8-10.377-23.177-23.177-23.177s-23.177 10.377-23.177 23.177c0 12.8 10.377 23.177 23.177 23.177s23.177-10.377 23.177-23.177zM540.444 601.811c0-12.8-10.377-23.177-23.177-23.177s-23.177 10.377-23.177 23.177c0 12.8 10.377 23.177 23.177 23.177s23.177-10.377 23.177-23.177zM641.58 601.811c0-12.8-10.377-23.177-23.177-23.177s-23.177 10.377-23.177 23.177c0 12.8 10.377 23.177 23.177 23.177s23.177-10.377 23.177-23.177zM487.77 519.638c0-12.8-10.377-23.177-23.177-23.177s-23.177 10.377-23.177 23.177c0 12.8 10.377 23.177 23.177 23.177s23.177-10.377 23.177-23.177zM591.012 519.638c0-12.8-10.377-23.177-23.177-23.177s-23.177 10.377-23.177 23.177c0 12.8 10.377 23.177 23.177 23.177s23.177-10.377 23.177-23.177z" />
<glyph unicode="&#xe90d;" glyph-name="ipod" d="M776.063 960h-528.126c-24.189 0-42.331-18.142-42.331-42.331v-939.339c0-24.189 20.157-42.331 42.331-42.331h528.126c24.189 0 42.331 18.142 42.331 42.331v939.339c0 24.189-18.142 42.331-42.331 42.331zM778.079-21.669c0-2.016 0-2.016-2.016-2.016h-528.126c-2.016 0-2.016 0-2.016 2.016v939.339l530.142 2.016c2.016 0 2.016 0 2.016-2.016v-939.339zM693.417 873.323h-362.835c-24.189 0-42.331-18.142-42.331-40.315v-364.85c0-22.173 18.142-40.315 42.331-40.315h362.835c24.189 0 42.331 18.142 42.331 40.315v364.85c0 22.173-18.142 40.315-42.331 40.315zM697.449 470.173c0 0 0 0-2.016 0h-366.866l2.016 364.85h366.866v-364.85zM512 399.622c-108.85 0-197.543-88.693-197.543-197.543s88.693-197.543 197.543-197.543 197.543 88.693 197.543 197.543c0 108.85-88.693 197.543-197.543 197.543zM512 44.85c-86.677 0-157.228 70.551-157.228 157.228s70.551 157.228 157.228 157.228c86.677 0 157.228-70.551 157.228-157.228s-70.551-157.228-157.228-157.228zM512 321.008c-66.52 0-118.929-54.425-118.929-118.929 0-66.52 54.425-118.929 118.929-118.929 66.52 0 118.929 54.425 118.929 118.929 0 66.52-52.409 118.929-118.929 118.929zM512 121.449c-44.346 0-78.614 36.283-78.614 78.614 0 44.346 36.283 78.614 78.614 78.614 44.346 0 78.614-36.283 78.614-78.614s-34.268-78.614-78.614-78.614z" />
<glyph unicode="&#xe90e;" glyph-name="screen" d="M902.982 862.255h-781.964c-57.716 0-121.018-31.651-121.018-121.018v-491.52c0-57.716 31.651-121.018 121.018-121.018h292.305l-35.375-57.716h-55.855c-11.171 0-18.618-7.447-18.618-18.618s7.447-18.618 18.618-18.618h359.331c11.171 0 18.618 7.447 18.618 18.618s-7.447 18.618-18.618 18.618h-55.855l-35.375 57.716h312.785c89.367 0 121.018 61.44 121.018 121.018v493.382c-1.862 87.505-63.302 119.156-121.018 119.156zM422.633 72.844l35.375 57.716h91.229l35.375-57.716h-161.978zM986.764 249.716h-1.862c0-31.651-11.171-83.782-83.782-83.782h-780.102c-72.611 0-83.782 52.131-83.782 83.782v493.382c0 72.611 52.131 83.782 83.782 83.782h781.964c31.651 0 83.782-11.171 83.782-83.782v-493.382zM882.502 776.611h-741.004c-22.342 0-39.098-18.618-39.098-39.098v-420.771c0-22.342 18.618-39.098 39.098-39.098h739.142c22.342 0 39.098 18.618 39.098 39.098v420.771c1.862 22.342-16.756 39.098-37.236 39.098zM882.502 314.88h-741.004c-1.862 0-1.862 1.862-1.862 1.862v420.771c0 1.862 1.862 1.862 1.862 1.862h739.142c1.862 0 1.862-1.862 1.862-1.862v-420.771h1.862c0-1.862-1.862-1.862-1.862-1.862zM530.618 223.651c0-15.424-12.503-27.927-27.927-27.927s-27.927 12.503-27.927 27.927c0 15.424 12.503 27.927 27.927 27.927s27.927-12.503 27.927-27.927z" />
<glyph unicode="&#xe90f;" glyph-name="quote" d="M0 374.857h219.428l-146.287-292.57h219.428l146.287 292.57v438.857h-438.857zM585.143 813.713v-438.857h219.428l-146.287-292.57h219.428l146.287 292.57v438.857z" />
<glyph unicode="&#xe910;" glyph-name="quote-light" d="M412.774 838.349v-57.344c-80.896-29.389-144.691-75.878-190.566-139.674-45.875-63.078-68.813-128.922-68.813-197.734 0-15.053 2.15-25.805 7.168-32.973 2.867-5.018 6.451-7.168 10.752-7.168 3.584 0 10.035 2.867 17.203 7.885 25.088 17.92 56.627 26.522 94.515 26.522 44.442 0 83.763-17.92 117.453-54.477 34.406-35.84 51.61-78.746 51.61-128.922 0-52.326-19.354-98.099-58.778-137.523s-86.63-59.494-142.541-59.494c-65.229 0-121.754 26.522-169.062 80.179-47.821 55.398-71.475 127.693-71.475 218.010 0 105.267 32.256 199.168 96.666 282.214 64.512 83.046 166.195 149.709 305.869 200.499zM973.619 838.349v-57.344c-80.896-29.389-143.974-75.878-189.85-139.674-45.875-63.078-68.813-128.922-68.813-197.734 0-15.053 2.15-25.805 7.168-32.973 2.867-5.018 6.451-7.168 10.752-7.168 3.584 0 10.035 2.867 17.203 7.885 25.088 17.92 56.627 26.522 94.515 26.522 44.442 0 83.763-17.92 117.453-54.477 34.406-35.84 51.61-78.746 51.61-128.922 0-52.326-19.354-98.099-58.778-137.523s-86.63-59.494-142.541-59.494c-65.229 0-121.754 26.522-169.062 80.179-47.309 53.76-70.861 125.338-70.861 215.552 0 105.267 32.256 199.168 96.666 282.214 63.181 85.504 164.864 152.166 304.538 202.957z" />
<glyph unicode="&#xe911;" glyph-name="pointed-star" d="M655.897 566.746c-11.313 0-23.323 8.732-26.828 19.49l-110.737 340.796c-3.505 10.761-9.16 10.761-12.665 0l-110.717-340.796c-3.505-10.761-15.514-19.49-26.828-19.49h-358.34c-11.313 0-13.076-5.391-3.916-12.052l289.887-210.589c9.16-6.662 13.752-20.781 10.247-31.543l-110.714-340.776c-3.505-10.761 1.087-14.1 10.247-7.441l289.887 210.589c9.16 6.662 24.001 6.662 33.161 0l289.887-210.609c9.16-6.662 13.752-3.321 10.247 7.441l-110.717 340.776c-3.505 10.761 1.087 24.881 10.247 31.543l289.887 210.589c9.16 6.662 7.398 12.052-3.916 12.052l-358.32 0.020z" />
<glyph unicode="&#xe912;" glyph-name="camera" d="M988.641 714.608c-16.972 16.972-38.188 28.287-62.232 32.53v41.017c0 15.558-7.072 29.702-16.972 41.017-9.901 9.901-25.459 16.972-41.017 16.972h-52.331c-15.558 0-29.702-7.072-41.017-16.972-9.901-9.901-16.972-25.459-16.972-41.017v-38.188h-59.403v69.304c0 19.801-8.486 38.188-21.215 50.917l-1.414 1.414c-12.729 12.729-31.116 19.801-49.503 19.801h-227.713c-19.801 0-38.188-8.486-50.917-21.215s-21.215-31.116-21.215-50.917v-69.304h-206.497c-32.53 0-62.232-14.144-84.862-35.359-21.215-21.215-35.359-50.917-35.359-84.862v-504.928c0-32.53 14.144-62.232 35.359-84.862 21.215-21.215 50.917-35.359 84.862-35.359h783.558c32.53 0 62.232 14.144 84.862 35.359 21.215 21.215 35.359 50.917 35.359 84.862v504.928c0 32.53-14.144 62.232-35.359 84.862zM809.017 788.155c0 1.414 0 2.829 1.414 4.243s2.829 1.414 4.243 1.414h52.331c1.414 0 2.829 0 4.243-1.414s1.414-2.829 1.414-4.243v-38.188h-63.646v38.188zM377.635 819.271c0 5.657 2.829 11.315 5.657 14.144 4.243 4.243 8.486 5.657 14.144 5.657h226.298c5.657 0 9.901-1.414 14.144-5.657l1.414-1.414c4.243-4.243 5.657-8.486 5.657-14.144v-69.304h-267.315v70.718zM970.254 124.818c0-18.387-7.072-35.359-19.801-48.088s-28.287-19.801-48.088-19.801h-782.144c-18.387 0-35.359 7.072-48.088 19.801s-19.801 28.287-19.801 48.088v504.928c0 18.387 7.072 35.359 19.801 48.088s28.287 19.801 48.088 19.801h783.558c18.387 0 35.359-7.072 48.088-19.801 11.315-12.729 18.387-29.702 18.387-48.088v-504.928zM685.967 550.541c-45.26 45.26-106.077 72.133-173.967 72.133s-128.707-26.873-173.967-72.133c-43.845-43.845-72.133-106.077-72.133-173.967s26.873-128.707 72.133-173.967c43.845-43.845 106.077-72.133 173.967-72.133s128.707 26.873 173.967 72.133c43.845 43.845 72.133 106.077 72.133 173.967s-26.873 128.707-72.133 173.967zM649.193 240.796c-35.359-35.359-83.448-56.575-137.193-56.575s-101.834 21.215-137.193 56.575-56.575 83.448-56.575 137.193c0 53.746 21.215 101.834 56.575 137.193s83.448 56.575 137.193 56.575 101.834-21.215 137.193-56.575 56.575-83.448 56.575-137.193-22.63-101.834-56.575-137.193zM207.912 597.215c0-27.34-22.163-49.503-49.503-49.503s-49.503 22.163-49.503 49.503c0 27.34 22.163 49.503 49.503 49.503s49.503-22.163 49.503-49.503z" />
<glyph unicode="&#xe913;" glyph-name="laptop" d="M879.304 746.852h-743.513c-11.13 0-21.148-8.904-21.148-21.148v-464.139c1.113-11.13 10.017-20.035 21.148-20.035h743.513c11.13 0 21.148 8.904 21.148 21.148v463.026c0 11.13-8.904 21.148-21.148 21.148zM859.27 282.713h-702.33v422.957h702.33v-422.957zM1002.852 217.043h-34.504c2.226 6.678 4.452 12.243 4.452 20.035v519.791c0 16.696-6.678 32.278-17.809 43.409s-26.713 17.809-43.409 17.809h-806.957c-16.696 0-32.278-6.678-43.409-17.809s-17.809-26.713-17.809-43.409v-518.678c0-6.678 2.226-13.357 4.452-20.035h-26.713c-11.13 0-21.148-8.904-21.148-21.148 0-32.278 13.357-62.33 34.504-84.591 21.148-21.148 51.2-34.504 84.591-34.504h784.696c32.278 0 62.33 13.357 84.591 34.504 21.148 21.148 35.617 51.2 35.617 84.591 0 11.13-8.904 20.035-21.148 20.035zM90.157 770.226c3.339 3.339 8.904 5.565 13.357 5.565h806.957c5.565 0 10.017-2.226 13.357-5.565s5.565-8.904 5.565-13.357v-518.678c0-5.565-2.226-10.017-5.565-13.357s-8.904-5.565-13.357-5.565h-805.843c-5.565 0-10.017 2.226-13.357 5.565s-5.565 8.904-5.565 13.357v518.678h-1.113c0 5.565 2.226 10.017 5.565 13.357zM959.443 141.357c-14.47-14.47-33.391-23.374-55.652-23.374h-784.696c-21.148 0-41.183 8.904-54.539 23.374-8.904 8.904-16.696 21.148-20.035 34.504h934.957c-3.339-13.357-10.017-24.487-20.035-34.504z" />
<glyph unicode="&#xe914;" glyph-name="headphones1" d="M990.518 286.169c2.79 20.926 6.975 40.458 11.161 61.384 2.79 23.717 5.58 47.433 5.58 71.15 0 62.779-11.161 122.768-33.482 178.572-19.531 51.619-48.828 97.657-85.101 139.51 5.58 11.161 9.766 23.717 8.371 34.877-1.395 18.136-9.766 36.272-23.717 50.223-25.112 22.322-51.619 41.853-79.52 58.594s-58.594 32.087-89.286 43.248c-30.692 11.161-62.779 20.926-94.866 26.507s-65.569 9.766-99.052 9.766c-33.482 0-65.569-2.79-99.052-9.766-33.482-5.58-64.174-15.346-94.866-26.507s-59.989-26.507-89.286-43.248c-27.902-16.741-54.409-36.272-79.52-58.594-15.346-13.951-23.717-32.087-23.717-50.223 0-12.556 2.79-23.717 8.371-34.877-34.877-41.853-64.174-87.891-85.101-139.51-20.926-55.804-33.482-115.793-33.482-178.572 0-23.717 1.395-47.433 5.58-71.15 2.79-20.926 8.371-40.458 13.951-61.384-18.136-30.692-29.297-66.965-29.297-106.027v-26.507c0-59.989 23.717-114.398 64.174-153.46 39.063-39.063 93.471-64.174 153.46-64.174h37.668c13.951 0 26.507 11.161 26.507 26.507v404.578c0 13.951-11.161 26.507-26.507 26.507h-41.853c-54.409 0-104.632-20.926-142.3-55.804-1.395 5.58-2.79 11.161-4.185 16.741-2.79 20.926-4.185 41.853-4.185 64.174 0 57.199 11.161 111.608 29.297 160.436 18.136 44.643 43.248 86.496 73.94 122.768 6.975-2.79 15.346-5.58 22.322-5.58 18.136-1.395 37.668 5.58 53.014 18.136 18.136 15.346 37.668 30.692 58.594 43.248s41.853 23.717 65.569 32.087c22.322 8.371 46.038 15.346 69.755 19.531s47.433 6.975 72.545 6.975c25.112 0 48.828-2.79 72.545-6.975s47.433-11.161 69.755-19.531c22.322-8.371 44.643-19.531 65.569-32.087s40.458-26.507 58.594-43.248c15.346-13.951 33.482-19.531 53.014-18.136 8.371 0 15.346 2.79 22.322 5.58 30.692-36.272 55.804-76.73 73.94-122.768 19.531-50.223 29.297-103.237 29.297-160.436 0-20.926-1.395-43.248-4.185-64.174-1.395-5.58-2.79-11.161-4.185-16.741-37.668 33.482-87.891 55.804-142.3 55.804h-41.853c-13.951 0-26.507-11.161-26.507-26.507v-404.578c0-13.951 11.161-26.507 26.507-26.507h37.668c59.989 0 114.398 23.717 153.46 64.174 39.063 39.063 64.174 93.471 64.174 153.46v26.507c0 39.063-11.161 73.94-29.297 106.027zM185.548 339.183c9.766 1.395 19.531 2.79 30.692 2.79h16.741v-352.959h-12.556c-12.556 0-23.717 1.395-36.272 4.185l1.395 345.984zM103.237 294.54c9.766 9.766 19.531 16.741 30.692 23.717v-304.131c-11.161 6.975-20.926 13.951-29.297 22.322-29.297 29.297-48.828 71.15-48.828 117.188v26.507c0 44.643 18.136 85.101 47.433 114.398zM839.847 754.921c-4.185-4.185-9.766-6.975-13.951-6.975-5.58 0-11.161 1.395-15.346 5.58-20.926 18.136-41.853 34.877-65.569 48.828s-48.828 26.507-73.94 36.272-51.619 16.741-78.125 22.322c-27.902 4.185-54.409 6.975-82.311 6.975s-54.409-2.79-80.916-6.975c-26.507-5.58-53.014-12.556-78.125-22.322s-50.223-22.322-73.94-36.272-44.643-30.692-65.569-48.828c-4.185-4.185-9.766-5.58-15.346-5.58s-11.161 2.79-15.346 6.975c-4.185 4.185-5.58 9.766-5.58 15.346s2.79 11.161 6.975 15.346c22.322 19.531 46.038 37.668 72.545 53.014 25.112 15.346 53.014 29.297 79.52 39.063 27.902 11.161 57.199 19.531 86.496 23.717 29.297 5.58 58.594 8.371 89.286 8.371s59.989-2.79 89.286-8.371c29.297-5.58 58.594-13.951 86.496-23.717 27.902-11.161 54.409-23.717 79.52-39.063s50.223-33.482 72.545-53.014c4.185-4.185 6.975-9.766 6.975-15.346s-1.395-11.161-5.58-15.346zM834.267-6.801c-11.161-2.79-22.322-4.185-34.877-4.185h-11.161v352.959h15.346c11.161 0 20.926-1.395 32.087-2.79l-1.395-345.984zM965.406 153.635c0-46.038-18.136-86.496-48.828-117.188-8.371-8.371-19.531-16.741-30.692-23.717l1.395 304.131c11.161-6.975 20.926-13.951 30.692-23.717 29.297-29.297 47.433-69.755 47.433-114.398v-25.112z" />
<glyph unicode="&#xe915;" glyph-name="smartphones" d="M800.674 942.235c-13.958 13.958-32.991 17.765-68.52 17.765h-464.416c-16.496 0-30.454-6.344-41.874-17.765-10.151-10.151-17.765-25.378-17.765-41.874v-905.993c0-15.227 6.344-29.185 17.765-40.605 10.151-10.151 25.378-17.765 41.874-17.765h488.525c16.496 0 30.454 6.344 41.874 17.765 10.151 10.151 17.765 25.378 17.765 41.874v881.884c0 31.722-1.269 50.756-15.227 64.714zM255.048 901.631c0 2.538 1.269 6.344 3.807 7.613 2.538 2.538 5.076 3.807 7.613 3.807h463.147c21.571 0 31.722 0 34.26-2.538s2.538-12.689 2.538-32.991v-52.025c-7.613 2.538-13.958 5.076-22.84 5.076h-465.685c-7.613 0-15.227-2.538-22.84-5.076v76.134zM261.393 776.010c3.807 3.807 10.151 6.344 15.227 6.344h466.954c6.344 0 11.42-2.538 15.227-6.344s6.344-10.151 6.344-15.227v-596.382c0-6.344-2.538-11.42-6.344-15.227s-10.151-6.344-15.227-6.344h-465.685c-6.344 0-11.42 2.538-15.227 6.344s-6.344 10.151-6.344 15.227v596.382h-1.269c0 6.344 2.538 11.42 6.344 15.227zM767.683-4.362c0-3.807-1.269-6.344-3.807-7.613-2.538-2.538-5.076-3.807-8.882-3.807h-487.257c-3.807 0-6.344 1.269-8.882 3.807s-3.807 5.076-3.807 7.613v104.050c7.613-2.538 13.958-5.076 22.84-5.076h466.954c7.613 0 15.227 2.538 22.84 5.076v-104.050zM541.819 62.89h-60.907c-13.958 0-24.109-11.42-24.109-24.109 0-13.958 11.42-24.109 24.109-24.109h60.907c13.958 0 24.109 11.42 24.109 24.109s-11.42 24.109-24.109 24.109zM466.954 871.177c0-13.315-10.794-24.109-24.109-24.109s-24.109 10.794-24.109 24.109c0 13.315 10.794 24.109 24.109 24.109s24.109-10.794 24.109-24.109zM535.475 871.177c0-13.315-10.794-24.109-24.109-24.109s-24.109 10.794-24.109 24.109c0 13.315 10.794 24.109 24.109 24.109s24.109-10.794 24.109-24.109zM603.995 871.177c0-13.315-10.794-24.109-24.109-24.109s-24.109 10.794-24.109 24.109c0 13.315 10.794 24.109 24.109 24.109s24.109-10.794 24.109-24.109z" />
<glyph unicode="&#xe916;" glyph-name="visibility" d="M1020.208 460.118c-8.064 11.734-201.859 286.554-508.21 286.554-262.874 0-497.118-273.242-506.974-284.89-6.698-7.936-6.698-19.584 0-27.562 9.856-11.648 244.1-284.89 506.974-284.89s497.116 273.242 506.972 284.89c6.188 7.338 6.742 17.962 1.238 25.898zM511.998 191.996c-210.733 0-411.1 200.963-462.001 256.004 50.817 55.083 250.97 256.004 462.001 256.004 246.574 0 420.615-200.665 463.111-254.852-49.069-53.291-250.586-257.156-463.111-257.156zM511.998 618.671c-94.123 0-170.669-76.545-170.669-170.669s76.545-170.669 170.669-170.669 170.669 76.545 170.669 170.669-76.545 170.669-170.669 170.669zM511.998 319.998c-70.571 0-128.002 57.431-128.002 128.002s57.431 128.002 128.002 128.002 128.002-57.431 128.002-128.002-57.431-128.002-128.002-128.002z" />
<glyph unicode="&#xe917;" glyph-name="star" d="M1024 477.324l-284.452 64.93 155.225 247.051-41.471 41.469-247.051-155.225-64.928 284.452h-58.648l-64.93-284.452-247.049 155.225-41.471-41.469 155.225-247.051-284.452-64.93v-58.648l284.452-64.93-155.225-247.051 41.471-41.469 247.049 155.225 64.93-284.452h58.648l64.928 284.452 247.051-155.225 41.471 41.469-155.225 247.051 284.452 64.93zM512 818.149l40.29-176.506-40.29-25.315-40.29 25.315zM141.849 448l176.508 40.29 25.315-40.29-25.315-40.29zM512 77.851l-40.29 176.506 40.29 25.315 40.29-25.315zM528.001 340.662h-32.005l-245.733-154.399 154.397 245.733v32.003l-154.397 245.733 245.733-154.399h32.005l245.733 154.399-154.397-245.733v-32.003l154.397-245.733zM705.643 407.71l-25.315 40.29 25.315 40.29 176.508-40.29z" />
<glyph unicode="&#xe918;" glyph-name="flash" d="M288.697-60.896c12.88-6.306 28.018-2.714 36.738 8.144l480.001 602.001c7.208 9.024 8.584 21.358 3.604 31.758-5.010 10.372-15.498 16.992-27.042 16.992h-191.456l158.292 318.583c4.658 9.288 4.16 20.332-1.318 29.18s-15.116 14.238-25.516 14.238h-360.001c-13.77 0-25.752-9.376-29.092-22.734l-120-482.001c-2.256-8.964-0.234-18.458 5.45-25.722 5.684-7.294 14.414-11.542 23.642-11.542h141.562l-110.654-444.735c-3.428-13.684 3.134-27.894 15.79-34.162z" />
<glyph unicode="&#xe919;" glyph-name="customer-service" d="M512 960c-230.016 0-417.146-187.13-417.146-417.146v-219.852c0-70.78 56.87-128.49 127.31-129.932 10.592-42.306 48.918-73.738 94.46-73.738h97.376v385.538h-97.376c-45.518 0-83.83-31.398-94.444-73.67h-67.326v111.656c0 196.93 160.214 357.144 357.146 357.144s357.146-160.214 357.146-357.146v-111.654h-67.326c-10.616 42.272-48.926 73.67-94.444 73.67h-97.376v-385.536h97.376c45.542 0 83.87 31.432 94.46 73.738 24.742 0.506 47.796 7.95 67.31 20.474v-37.342c0-99.364-80.838-180.202-180.204-180.202h-326.276v-60h326.278c132.45 0 240.204 107.754 240.204 240.202v366.65c-0.002 230.016-187.132 417.146-417.148 417.146zM354 444.87v-265.536h-37.376c-20.61 0-37.378 16.766-37.378 37.376v190.784c0 20.61 16.768 37.376 37.378 37.376zM154.854 323.002v48.198h64.394v-117.974c-35.986 2.864-64.394 33.066-64.394 69.776zM869.146 323.002c0-36.71-28.408-66.912-64.394-69.778v117.976h64.394zM670 179.334v265.536h37.376c20.61 0 37.378-16.766 37.378-37.376v-190.784c0-20.61-16.768-37.376-37.378-37.376z" />
<glyph unicode="&#xe91a;" glyph-name="secure-payment" d="M145.336 241.166h264v-60h-264zM461.414 875.834v-185.666h-326.628c-74.322-0.002-134.786-60.464-134.786-134.786v-400.432c0-74.32 60.464-134.784 134.786-134.784h615.214c74.32 0 134.786 60.464 134.786 134.784l0.010 126.888c83.076 35.604 139.204 117.98 139.204 208.366v385.63zM60 555.382c0 41.236 33.548 74.784 74.786 74.784h326.628v-93h-401.414zM60 477.166h401.826c1.7-29.628 9.142-58.074 21.486-84h-423.312zM824.786 154.95c0-41.236-33.548-74.784-74.786-74.784h-615.214c-41.238 0-74.786 33.548-74.786 74.784v178.216h464.994c20.42-21.064 45.114-38.334 73.178-50.362l144.536-61.944 82.078 35.176zM964 490.204c0-66.352-39.406-126.114-100.392-152.25l-120.9-51.814-120.898 51.814c-60.988 26.136-100.394 85.898-100.394 152.25v325.628h442.584zM585.36 490.202c0-40.734 24.194-77.424 61.636-93.474l95.71-41.018 95.712 41.018c37.444 16.046 61.636 52.738 61.636 93.474v261.686h-314.694zM840.054 691.888v-201.686c0-16.702-9.92-31.746-25.274-38.326l-72.074-30.89-72.074 30.89c-15.354 6.58-25.274 21.624-25.274 38.326v201.686z" />
<glyph unicode="&#xe91b;" glyph-name="delivery-box" d="M106.244 248.378c-30.238 61.328-46.244 129.24-46.244 199.622s16.006 138.294 46.244 199.622l-52.11 30.086c-35.404-70.4-54.134-148.614-54.134-229.708s18.73-159.308 54.134-229.706zM917.756 647.624c30.238-61.328 46.244-129.242 46.244-199.624s-16.006-138.294-46.244-199.622l52.11-30.084c35.406 70.398 54.134 148.612 54.134 229.706s-18.73 159.308-54.136 229.708zM136.312 699.546c16.27 24.192 35 46.99 56.076 68.068 78.262 78.258 180.172 124.258 289.612 131.382v60.11c-125.478-7.202-242.44-59.47-332.038-149.066-24.836-24.836-46.784-51.79-65.724-80.43zM482-2.996c-109.44 7.126-211.35 53.122-289.612 131.384-21.076 21.076-39.806 43.876-56.076 68.068l-52.074-30.064c18.938-28.64 40.886-55.594 65.724-80.43 89.598-89.598 206.56-141.866 332.038-149.068zM887.688 196.456c-16.27-24.192-35-46.99-56.076-68.068-78.262-78.26-180.172-124.258-289.612-131.384v-60.11c125.478 7.204 242.442 59.47 332.040 149.068 24.836 24.836 46.784 51.79 65.724 80.43zM542 898.996c109.442-7.124 211.352-53.124 289.612-131.384 21.076-21.078 39.806-43.876 56.076-68.068l52.074 30.064c-18.938 28.64-40.886 55.592-65.724 80.43-89.596 89.598-206.56 141.866-332.038 149.068zM245.3 714.7v-533.4h533.4v533.4zM718.7 241.3h-413.4v413.4h115.734v-236.26h181.93v236.26h115.734v-413.4zM542.964 654.7v-176.26h-61.93v176.26zM541.064 357.14h126.478v-60h-126.478z" />
<glyph unicode="&#xe91c;" glyph-name="delivery-truck" d="M1024 490.328l-198.7 254.338h-112.632v85.334h-712.668v-657.334h120.818c9.332-60.33 61.612-106.666 124.516-106.666s115.184 46.336 124.516 106.666h284.302c9.33-60.33 61.612-106.666 124.514-106.666s115.184 46.336 124.516 106.666h120.818zM844.666 192c0-36.392-29.608-66-66-66s-66 29.608-66 66 29.608 66 66 66 66-29.608 66-66zM311.334 192c0-36.392-29.608-66-66-66s-66 29.608-66 66 29.608 66 66 66 66-29.608 66-66zM245.334 318c-55.248 0-102.27-35.758-119.228-85.334h-66.106v196h410.628l59.81 209.334h-470.438v132h592.666v-537.334h-288.104c-16.958 49.576-63.98 85.334-119.228 85.334zM60.002 488.666v89.334h390.894l-25.524-89.334zM778.666 318c-24.186 0-46.792-6.864-66-18.726v150.726h251.334v-217.334h-66.106c-16.956 49.576-63.98 85.334-119.228 85.334zM712.666 510v174.666h83.368l136.46-174.666z" />
</font>
</defs>
</svg>
